<?xml version="1.0" encoding="utf-8"?>
<!-- Generator: Adobe Illustrator 23.0.1, SVG Export Plug-In . SVG Version: 6.00 Build 0)  -->
<svg version="1.1" id="Layer_1" xmlns="http://www.w3.org/2000/svg" xmlns:xlink="http://www.w3.org/1999/xlink" x="0px" y="0px"
	 viewBox="0 0 500 500" style="enable-background:new 0 0 500 500;" xml:space="preserve">
<style type="text/css">
	.st0{fill:#5B0E0E;}
</style>
<g>
	<path class="st0" d="M7.81,563.32c-4.95,0-9.23-3.7-9.96-8.6L-88.84-28.99c-0.4-2.67,0.27-5.32,1.87-7.49s3.96-3.57,6.62-3.97
		L270.8-92.6c0.5-0.07,1-0.11,1.5-0.11c4.95,0,9.24,3.7,9.96,8.6l86.69,583.71c0.82,5.5-2.99,10.64-8.5,11.46L9.31,563.21
		C8.81,563.28,8.31,563.32,7.81,563.32z"/>
	<path d="M272.3-92.21c4.71,0,8.78,3.52,9.47,8.18l86.69,583.71c0.38,2.53-0.26,5.06-1.78,7.12c-1.52,2.06-3.76,3.4-6.29,3.77
		L9.24,562.72c-0.47,0.07-0.95,0.11-1.42,0.11c-4.71,0-8.78-3.52-9.47-8.18L-88.34-29.06c-0.78-5.23,2.85-10.11,8.07-10.89
		L270.88-92.1C271.35-92.17,271.83-92.21,272.3-92.21 M272.3-93.21c-0.52,0-1.04,0.04-1.57,0.12L-80.42-40.94
		c-5.78,0.86-9.77,6.24-8.92,12.03l86.69,583.71c0.78,5.26,5.3,9.03,10.46,9.03c0.52,0,1.04-0.04,1.57-0.12l351.15-52.15
		c5.78-0.86,9.77-6.24,8.92-12.03L282.76-84.18C281.98-89.43,277.46-93.21,272.3-93.21L272.3-93.21z"/>
</g>
</svg>
